<svg width="1235" height="1013" viewBox="0 0 1235 1013" fill="none" xmlns="http://www.w3.org/2000/svg">
<mask id="mask0_1_127" style="mask-type:alpha" maskUnits="userSpaceOnUse" x="0" y="0" width="1235" height="1013">
<rect width="1235" height="1013" fill="url(#paint0_radial_1_127)"/>
</mask>
<g mask="url(#mask0_1_127)">
<rect x="117.5" y="13" width="100" height="100" stroke="white"/>
<rect x="217.5" y="13" width="100" height="100" stroke="white"/>
<rect x="317.5" y="13" width="100" height="100" stroke="white"/>
<rect x="417.5" y="13" width="100" height="100" stroke="white"/>
<rect x="517.5" y="13" width="100" height="100" stroke="white"/>
<rect x="617.5" y="13" width="100" height="100" stroke="white"/>
<rect x="717.5" y="13" width="100" height="100" stroke="white"/>
<rect x="817.5" y="13" width="100" height="100" stroke="white"/>
<rect x="917.5" y="13" width="100" height="100" stroke="white"/>
<rect x="1017.5" y="13" width="100" height="100" stroke="white"/>
<rect x="117.5" y="113" width="100" height="100" stroke="white"/>
<rect x="217.5" y="113" width="100" height="100" stroke="white"/>
<rect x="317.5" y="113" width="100" height="100" stroke="white"/>
<rect x="417.5" y="113" width="100" height="100" stroke="white"/>
<rect x="517.5" y="113" width="100" height="100" stroke="white"/>
<rect x="617.5" y="113" width="100" height="100" stroke="white"/>
<rect x="717.5" y="113" width="100" height="100" stroke="white"/>
<rect x="817.5" y="113" width="100" height="100" stroke="white"/>
<rect x="917.5" y="113" width="100" height="100" stroke="white"/>
<rect x="1017.5" y="113" width="100" height="100" stroke="white"/>
<rect x="117.5" y="213" width="100" height="100" stroke="white"/>
<rect x="217.5" y="213" width="100" height="100" stroke="white"/>
<rect x="317.5" y="213" width="100" height="100" stroke="white"/>
<rect x="417.5" y="213" width="100" height="100" stroke="white"/>
<rect x="517.5" y="213" width="100" height="100" stroke="white"/>
<rect x="617.5" y="213" width="100" height="100" stroke="white"/>
<rect x="717.5" y="213" width="100" height="100" stroke="white"/>
<rect x="817.5" y="213" width="100" height="100" stroke="white"/>
<rect x="917.5" y="213" width="100" height="100" stroke="white"/>
<rect x="1017.5" y="213" width="100" height="100" stroke="white"/>
<rect x="117.5" y="313" width="100" height="100" stroke="white"/>
<rect x="217.5" y="313" width="100" height="100" stroke="white"/>
<rect x="317.5" y="313" width="100" height="100" stroke="white"/>
<rect x="417.5" y="313" width="100" height="100" stroke="white"/>
<rect x="517.5" y="313" width="100" height="100" stroke="white"/>
<rect x="617.5" y="313" width="100" height="100" stroke="white"/>
<rect x="717.5" y="313" width="100" height="100" stroke="white"/>
<rect x="817.5" y="313" width="100" height="100" stroke="white"/>
<rect x="917.5" y="313" width="100" height="100" stroke="white"/>
<rect x="1017.5" y="313" width="100" height="100" stroke="white"/>
<rect x="117.5" y="413" width="100" height="100" stroke="white"/>
<rect x="217.5" y="413" width="100" height="100" stroke="white"/>
<rect x="317.5" y="413" width="100" height="100" stroke="white"/>
<rect x="417.5" y="413" width="100" height="100" stroke="white"/>
<rect x="517.5" y="413" width="100" height="100" stroke="white"/>
<rect x="617.5" y="413" width="100" height="100" stroke="white"/>
<rect x="717.5" y="413" width="100" height="100" stroke="white"/>
<rect x="817.5" y="413" width="100" height="100" stroke="white"/>
<rect x="917.5" y="413" width="100" height="100" stroke="white"/>
<rect x="1017.5" y="413" width="100" height="100" stroke="white"/>
<rect x="117.5" y="513" width="100" height="100" stroke="white"/>
<rect x="217.5" y="513" width="100" height="100" stroke="white"/>
<rect x="317.5" y="513" width="100" height="100" stroke="white"/>
<rect x="417.5" y="513" width="100" height="100" stroke="white"/>
<rect x="517.5" y="513" width="100" height="100" stroke="white"/>
<rect x="617.5" y="513" width="100" height="100" stroke="white"/>
<rect x="717.5" y="513" width="100" height="100" stroke="white"/>
<rect x="817.5" y="513" width="100" height="100" stroke="white"/>
<rect x="917.5" y="513" width="100" height="100" stroke="white"/>
<rect x="1017.5" y="513" width="100" height="100" stroke="white"/>
<rect x="117.5" y="613" width="100" height="100" stroke="white"/>
<rect x="217.5" y="613" width="100" height="100" stroke="white"/>
<rect x="317.5" y="613" width="100" height="100" stroke="white"/>
<rect x="417.5" y="613" width="100" height="100" stroke="white"/>
<rect x="517.5" y="613" width="100" height="100" stroke="white"/>
<rect x="617.5" y="613" width="100" height="100" stroke="white"/>
<rect x="717.5" y="613" width="100" height="100" stroke="white"/>
<rect x="817.5" y="613" width="100" height="100" stroke="white"/>
<rect x="917.5" y="613" width="100" height="100" stroke="white"/>
<rect x="1017.5" y="613" width="100" height="100" stroke="white"/>
<rect x="117.5" y="713" width="100" height="100" stroke="white"/>
<rect x="217.5" y="713" width="100" height="100" stroke="white"/>
<rect x="317.5" y="713" width="100" height="100" stroke="white"/>
<rect x="417.5" y="713" width="100" height="100" stroke="white"/>
<rect x="517.5" y="713" width="100" height="100" stroke="white"/>
<rect x="617.5" y="713" width="100" height="100" stroke="white"/>
<rect x="717.5" y="713" width="100" height="100" stroke="white"/>
<rect x="817.5" y="713" width="100" height="100" stroke="white"/>
<rect x="917.5" y="713" width="100" height="100" stroke="white"/>
<rect x="1017.5" y="713" width="100" height="100" stroke="white"/>
<rect x="117.5" y="813" width="100" height="100" stroke="white"/>
<rect x="217.5" y="813" width="100" height="100" stroke="white"/>
<rect x="317.5" y="813" width="100" height="100" stroke="white"/>
<rect x="417.5" y="813" width="100" height="100" stroke="white"/>
<rect x="517.5" y="813" width="100" height="100" stroke="white"/>
<rect x="617.5" y="813" width="100" height="100" stroke="white"/>
<rect x="717.5" y="813" width="100" height="100" stroke="white"/>
<rect x="817.5" y="813" width="100" height="100" stroke="white"/>
<rect x="917.5" y="813" width="100" height="100" stroke="white"/>
<rect x="1017.5" y="813" width="100" height="100" stroke="white"/>
<rect x="117.5" y="913" width="100" height="100" stroke="white"/>
<rect x="217.5" y="913" width="100" height="100" stroke="white"/>
<rect x="317.5" y="913" width="100" height="100" stroke="white"/>
<rect x="417.5" y="913" width="100" height="100" stroke="white"/>
<rect x="517.5" y="913" width="100" height="100" stroke="white"/>
<rect x="617.5" y="913" width="100" height="100" stroke="white"/>
<rect x="717.5" y="913" width="100" height="100" stroke="white"/>
<rect x="817.5" y="913" width="100" height="100" stroke="white"/>
<rect x="917.5" y="913" width="100" height="100" stroke="white"/>
<rect x="1017.5" y="913" width="100" height="100" stroke="white"/>
</g>
<defs>
<radialGradient id="paint0_radial_1_127" cx="0" cy="0" r="1" gradientUnits="userSpaceOnUse" gradientTransform="translate(618 516.5) rotate(91.522) scale(414.146 504.907)">
<stop/>
<stop offset="1" stop-opacity="0"/>
</radialGradient>
</defs>
</svg>
