<svg width="1440" height="592" viewBox="0 0 1440 592" fill="none" xmlns="http://www.w3.org/2000/svg">
<mask id="mask0_114_1942" style="mask-type:alpha" maskUnits="userSpaceOnUse" x="0" y="0" width="1440" height="592">
<rect width="1440" height="592" fill="url(#paint0_radial_114_1942)"/>
</mask>
<g mask="url(#mask0_114_1942)">
<g opacity="0.2">
<rect x="20" y="10" width="70" height="70" fill="white" stroke="white"/>
<rect x="90" y="10" width="70" height="70" stroke="white" stroke-width="2"/>
<rect x="160" y="10" width="70" height="70" stroke="white" stroke-width="2"/>
<rect x="230" y="10" width="70" height="70" stroke="white" stroke-width="2"/>
<rect x="300" y="10" width="70" height="70" stroke="white" stroke-width="2"/>
<rect x="370" y="10" width="70" height="70" stroke="white" stroke-width="2"/>
<rect x="440" y="10" width="70" height="70" stroke="white" stroke-width="2"/>
<rect x="510" y="10" width="70" height="70" stroke="white" stroke-width="2"/>
<rect x="580" y="10" width="70" height="70" fill="white" stroke="white"/>
<rect x="650" y="10" width="70" height="70" stroke="white" stroke-width="2"/>
<rect x="720" y="10" width="70" height="70" stroke="white" stroke-width="2"/>
<rect x="790" y="10" width="70" height="70" stroke="white" stroke-width="2"/>
<rect x="860" y="10" width="70" height="70" stroke="white" stroke-width="2"/>
<rect x="930" y="10" width="70" height="70" stroke="white" stroke-width="2"/>
<rect x="1000" y="10" width="70" height="70" stroke="white" stroke-width="2"/>
<rect x="1070" y="10" width="70" height="70" stroke="white" stroke-width="2"/>
<rect x="1140" y="10" width="70" height="70" fill="white" stroke="white"/>
<rect x="1210" y="10" width="70" height="70" stroke="white" stroke-width="2"/>
<rect x="1280" y="10" width="70" height="70" stroke="white" stroke-width="2"/>
<rect x="1350" y="10" width="70" height="70" stroke="white" stroke-width="2"/>
<rect x="20" y="80" width="70" height="70" stroke="white" stroke-width="2"/>
<rect x="90" y="80" width="70" height="70" stroke="white" stroke-width="2"/>
<rect x="160" y="80" width="70" height="70" fill="white" stroke="white"/>
<rect x="230" y="80" width="70" height="70" stroke="white" stroke-width="2"/>
<rect x="300" y="80" width="70" height="70" stroke="white" stroke-width="2"/>
<rect x="370" y="80" width="70" height="70" fill="white" stroke="white"/>
<rect x="440" y="80" width="70" height="70" stroke="white" stroke-width="2"/>
<rect x="510" y="80" width="70" height="70" stroke="white" stroke-width="2"/>
<rect x="580" y="80" width="70" height="70" stroke="white" stroke-width="2"/>
<rect x="650" y="80" width="70" height="70" stroke="white" stroke-width="2"/>
<rect x="720" y="80" width="70" height="70" stroke="white" stroke-width="2"/>
<rect x="790" y="80" width="70" height="70" stroke="white" stroke-width="2"/>
<rect x="860" y="80" width="70" height="70" stroke="white" stroke-width="2"/>
<rect x="930" y="80" width="70" height="70" fill="white" stroke="white"/>
<rect x="1000" y="80" width="70" height="70" stroke="white" stroke-width="2"/>
<rect x="1070" y="80" width="70" height="70" stroke="white" stroke-width="2"/>
<rect x="1140" y="80" width="70" height="70" stroke="white" stroke-width="2"/>
<rect x="1210" y="80" width="70" height="70" stroke="white" stroke-width="2"/>
<rect x="1280" y="80" width="70" height="70" stroke="white" stroke-width="2"/>
<rect x="1350" y="80" width="70" height="70" fill="white" stroke="white"/>
<rect x="20" y="150" width="70" height="70" stroke="white" stroke-width="2"/>
<rect x="90" y="150" width="70" height="70" stroke="white" stroke-width="2"/>
<rect x="160" y="150" width="70" height="70" stroke="white" stroke-width="2"/>
<rect x="230" y="150" width="70" height="70" stroke="white" stroke-width="2"/>
<rect x="300" y="150" width="70" height="70" stroke="white" stroke-width="2"/>
<rect x="370" y="150" width="70" height="70" stroke="white" stroke-width="2"/>
<rect x="440" y="150" width="70" height="70" stroke="white" stroke-width="2"/>
<rect x="510" y="150" width="70" height="70" stroke="white" stroke-width="2"/>
<rect x="580" y="150" width="70" height="70" stroke="white" stroke-width="2"/>
<rect x="650" y="150" width="70" height="70" stroke="white" stroke-width="2"/>
<rect x="720" y="150" width="70" height="70" fill="white" stroke="white"/>
<rect x="790" y="150" width="70" height="70" stroke="white" stroke-width="2"/>
<rect x="860" y="150" width="70" height="70" stroke="white" stroke-width="2"/>
<rect x="930" y="150" width="70" height="70" stroke="white" stroke-width="2"/>
<rect x="1000" y="150" width="70" height="70" stroke="white" stroke-width="2"/>
<rect x="1070" y="150" width="70" height="70" stroke="white" stroke-width="2"/>
<rect x="1140" y="150" width="70" height="70" stroke="white" stroke-width="2"/>
<rect x="1210" y="150" width="70" height="70" stroke="white" stroke-width="2"/>
<rect x="1280" y="150" width="70" height="70" stroke="white" stroke-width="2"/>
<rect x="1350" y="150" width="70" height="70" stroke="white" stroke-width="2"/>
<rect x="20" y="220" width="70" height="70" stroke="white" stroke-width="2"/>
<rect x="90" y="220" width="70" height="70" stroke="white" stroke-width="2"/>
<rect x="160" y="220" width="70" height="70" stroke="white" stroke-width="2"/>
<rect x="230" y="220" width="70" height="70" fill="white" stroke="white"/>
<rect x="300" y="220" width="70" height="70" stroke="white" stroke-width="2"/>
<rect x="370" y="220" width="70" height="70" stroke="white" stroke-width="2"/>
<rect x="440" y="220" width="70" height="70" stroke="white" stroke-width="2"/>
<rect x="510" y="220" width="70" height="70" stroke="white" stroke-width="2"/>
<rect x="580" y="220" width="70" height="70" stroke="white" stroke-width="2"/>
<rect x="650" y="220" width="70" height="70" stroke="white" stroke-width="2"/>
<rect x="720" y="220" width="70" height="70" stroke="white" stroke-width="2"/>
<rect x="790" y="220" width="70" height="70" stroke="white" stroke-width="2"/>
<rect x="860" y="220" width="70" height="70" stroke="white" stroke-width="2"/>
<rect x="930" y="220" width="70" height="70" stroke="white" stroke-width="2"/>
<rect x="1000" y="220" width="70" height="70" stroke="white" stroke-width="2"/>
<rect x="1070" y="220" width="70" height="70" stroke="white" stroke-width="2"/>
<rect x="1140" y="220" width="70" height="70" stroke="white" stroke-width="2"/>
<rect x="1210" y="220" width="70" height="70" fill="white" stroke="white"/>
<rect x="1280" y="220" width="70" height="70" stroke="white" stroke-width="2"/>
<rect x="1350" y="220" width="70" height="70" stroke="white" stroke-width="2"/>
<rect x="20" y="290" width="70" height="70" fill="white" stroke="white"/>
<rect x="90" y="290" width="70" height="70" stroke="white" stroke-width="2"/>
<rect x="160" y="290" width="70" height="70" stroke="white" stroke-width="2"/>
<rect x="230" y="290" width="70" height="70" stroke="white" stroke-width="2"/>
<rect x="300" y="290" width="70" height="70" stroke="white" stroke-width="2"/>
<rect x="370" y="290" width="70" height="70" stroke="white" stroke-width="2"/>
<rect x="440" y="290" width="70" height="70" fill="white" stroke="white"/>
<rect x="510" y="290" width="70" height="70" stroke="white" stroke-width="2"/>
<rect x="580" y="290" width="70" height="70" stroke="white" stroke-width="2"/>
<rect x="650" y="290" width="70" height="70" stroke="white" stroke-width="2"/>
<rect x="720" y="290" width="70" height="70" stroke="white" stroke-width="2"/>
<rect x="790" y="290" width="70" height="70" stroke="white" stroke-width="2"/>
<rect x="860" y="290" width="70" height="70" stroke="white" stroke-width="2"/>
<rect x="930" y="290" width="70" height="70" stroke="white" stroke-width="2"/>
<rect x="1000" y="290" width="70" height="70" fill="white" stroke="white"/>
<rect x="1070" y="290" width="70" height="70" stroke="white" stroke-width="2"/>
<rect x="1140" y="290" width="70" height="70" stroke="white" stroke-width="2"/>
<rect x="1210" y="290" width="70" height="70" stroke="white" stroke-width="2"/>
<rect x="1280" y="290" width="70" height="70" stroke="white" stroke-width="2"/>
<rect x="1350" y="290" width="70" height="70" stroke="white" stroke-width="2"/>
<rect x="20" y="360" width="70" height="70" stroke="white" stroke-width="2"/>
<rect x="90" y="360" width="70" height="70" stroke="white" stroke-width="2"/>
<rect x="160" y="360" width="70" height="70" stroke="white" stroke-width="2"/>
<rect x="230" y="360" width="70" height="70" stroke="white" stroke-width="2"/>
<rect x="300" y="360" width="70" height="70" stroke="white" stroke-width="2"/>
<rect x="370" y="360" width="70" height="70" stroke="white" stroke-width="2"/>
<rect x="440" y="360" width="70" height="70" stroke="white" stroke-width="2"/>
<rect x="510" y="360" width="70" height="70" stroke="white" stroke-width="2"/>
<rect x="580" y="360" width="70" height="70" stroke="white" stroke-width="2"/>
<rect x="650" y="360" width="70" height="70" fill="white" stroke="white"/>
<rect x="720" y="360" width="70" height="70" stroke="white" stroke-width="2"/>
<rect x="790" y="360" width="70" height="70" stroke="white" stroke-width="2"/>
<rect x="860" y="360" width="70" height="70" stroke="white" stroke-width="2"/>
<rect x="930" y="360" width="70" height="70" stroke="white" stroke-width="2"/>
<rect x="1000" y="360" width="70" height="70" stroke="white" stroke-width="2"/>
<rect x="1070" y="360" width="70" height="70" stroke="white" stroke-width="2"/>
<rect x="1140" y="360" width="70" height="70" stroke="white" stroke-width="2"/>
<rect x="1210" y="360" width="70" height="70" fill="white" stroke="white"/>
<rect x="1280" y="360" width="70" height="70" stroke="white" stroke-width="2"/>
<rect x="1350" y="360" width="70" height="70" stroke="white" stroke-width="2"/>
<rect x="20" y="430" width="70" height="70" stroke="white" stroke-width="2"/>
<rect x="90" y="430" width="70" height="70" fill="white" stroke="white"/>
<rect x="160" y="430" width="70" height="70" stroke="white" stroke-width="2"/>
<rect x="230" y="430" width="70" height="70" stroke="white" stroke-width="2"/>
<rect x="300" y="430" width="70" height="70" stroke="white" stroke-width="2"/>
<rect x="370" y="430" width="70" height="70" stroke="white" stroke-width="2"/>
<rect x="440" y="430" width="70" height="70" stroke="white" stroke-width="2"/>
<rect x="510" y="430" width="70" height="70" stroke="white" stroke-width="2"/>
<rect x="580" y="430" width="70" height="70" stroke="white" stroke-width="2"/>
<rect x="650" y="430" width="70" height="70" stroke="white" stroke-width="2"/>
<rect x="720" y="430" width="70" height="70" stroke="white" stroke-width="2"/>
<rect x="790" y="430" width="70" height="70" stroke="white" stroke-width="2"/>
<rect x="860" y="430" width="70" height="70" stroke="white" stroke-width="2"/>
<rect x="930" y="430" width="70" height="70" fill="white" stroke="white"/>
<rect x="1000" y="430" width="70" height="70" stroke="white" stroke-width="2"/>
<rect x="1070" y="430" width="70" height="70" stroke="white" stroke-width="2"/>
<rect x="1140" y="430" width="70" height="70" stroke="white" stroke-width="2"/>
<rect x="1210" y="430" width="70" height="70" stroke="white" stroke-width="2"/>
<rect x="1280" y="430" width="70" height="70" stroke="white" stroke-width="2"/>
<rect x="1350" y="430" width="70" height="70" stroke="white" stroke-width="2"/>
<rect x="20" y="500" width="70" height="70" stroke="white" stroke-width="2"/>
<rect x="90" y="500" width="70" height="70" stroke="white" stroke-width="2"/>
<rect x="160" y="500" width="70" height="70" stroke="white" stroke-width="2"/>
<rect x="230" y="500" width="70" height="70" stroke="white" stroke-width="2"/>
<rect x="300" y="500" width="70" height="70" fill="white" stroke="white"/>
<rect x="370" y="500" width="70" height="70" stroke="white" stroke-width="2"/>
<rect x="440" y="500" width="70" height="70" stroke="white" stroke-width="2"/>
<rect x="510" y="500" width="70" height="70" stroke="white" stroke-width="2"/>
<rect x="580" y="500" width="70" height="70" stroke="white" stroke-width="2"/>
<rect x="650" y="500" width="70" height="70" stroke="white" stroke-width="2"/>
<rect x="720" y="500" width="70" height="70" fill="white" stroke="white"/>
<rect x="790" y="500" width="70" height="70" stroke="white" stroke-width="2"/>
<rect x="860" y="500" width="70" height="70" stroke="white" stroke-width="2"/>
<rect x="930" y="500" width="70" height="70" stroke="white" stroke-width="2"/>
<rect x="1000" y="500" width="70" height="70" stroke="white" stroke-width="2"/>
<rect x="1070" y="500" width="70" height="70" stroke="white" stroke-width="2"/>
<rect x="1140" y="500" width="70" height="70" fill="white" stroke="white"/>
<rect x="1210" y="500" width="70" height="70" stroke="white" stroke-width="2"/>
<rect x="1280" y="500" width="70" height="70" stroke="white" stroke-width="2"/>
<rect x="1350" y="500" width="70" height="70" fill="white" stroke="white"/>
</g>
</g>
<defs>
<radialGradient id="paint0_radial_114_1942" cx="0" cy="0" r="1" gradientUnits="userSpaceOnUse" gradientTransform="translate(720 296) rotate(-180) scale(877 296)">
<stop stop-color="white"/>
<stop offset="1" stop-opacity="0"/>
</radialGradient>
</defs>
</svg>
